<svg width="30" height="29" viewBox="0 0 30 29" fill="none" xmlns="http://www.w3.org/2000/svg">
<path d="M10.4898 13.2917C10.4898 12.6244 11.0308 12.0834 11.6982 12.0834H18.9482C19.6155 12.0834 20.1565 12.6244 20.1565 13.2917C20.1565 13.9591 19.6155 14.5001 18.9482 14.5001H11.6982C11.0308 14.5001 10.4898 13.9591 10.4898 13.2917Z" fill="white"/>
<path d="M11.6982 16.9167C11.0308 16.9167 10.4898 17.4577 10.4898 18.1251C10.4898 18.7924 11.0308 19.3334 11.6982 19.3334H15.3232C15.9905 19.3334 16.5315 18.7924 16.5315 18.1251C16.5315 17.4577 15.9905 16.9167 15.3232 16.9167H11.6982Z" fill="white"/>
<path fill-rule="evenodd" clip-rule="evenodd" d="M19.4968 4.85799C22.5764 5.13519 24.9898 7.72329 24.9898 10.8751V20.5417C24.9898 23.8785 22.2849 26.5834 18.9482 26.5834H11.6982C8.36144 26.5834 5.65649 23.8785 5.65649 20.5417V10.8751C5.65649 7.72329 8.06991 5.13519 11.1495 4.85799C11.4199 3.46691 12.6447 2.41675 14.1148 2.41675H16.5315C18.0016 2.41675 19.2265 3.46691 19.4968 4.85799ZM17.1357 5.43758C17.1357 5.77125 16.8652 6.04175 16.5315 6.04175L14.1148 6.04175C13.7812 6.04175 13.5107 5.77125 13.5107 5.43758C13.5107 5.10391 13.7812 4.83341 14.1148 4.83341L16.5315 4.83341C16.8652 4.83341 17.1357 5.10391 17.1357 5.43758ZM16.5315 8.45841C17.5198 8.45841 18.3973 7.98381 18.9484 7.25008C20.9503 7.2502 22.5732 8.87312 22.5732 10.8751V20.5417C22.5732 22.5438 20.9502 24.1667 18.9482 24.1667H11.6982C9.69613 24.1667 8.07316 22.5438 8.07316 20.5417L8.07316 10.8751C8.07316 8.87312 9.69601 7.2502 11.6979 7.25008C12.2491 7.98381 13.1265 8.45842 14.1148 8.45842L16.5315 8.45841Z" fill="white"/>
</svg>
