<svg width="29" height="30" viewBox="0 0 29 30" fill="none" xmlns="http://www.w3.org/2000/svg">
<path d="M15.3874 7.54842C15.3874 6.88108 14.8464 6.34009 14.179 6.34009C13.5117 6.34009 12.9707 6.88108 12.9707 7.54842V12.9859C12.9707 13.3064 13.098 13.6137 13.3246 13.8403L15.1371 15.6528C15.609 16.1247 16.3741 16.1247 16.846 15.6528C17.3178 15.181 17.3178 14.4159 16.846 13.944L15.3874 12.4854V7.54842Z" fill="white"/>
<path fill-rule="evenodd" clip-rule="evenodd" d="M14.179 0.902588C7.5056 0.902588 2.0957 6.31248 2.0957 12.9859C2.0957 19.6594 7.5056 25.0693 14.179 25.0693C20.8525 25.0693 26.2624 19.6594 26.2624 12.9859C26.2624 6.31248 20.8525 0.902588 14.179 0.902588ZM4.51237 12.9859C4.51237 7.64717 8.84028 3.31925 14.179 3.31925C19.5178 3.31925 23.8457 7.64717 23.8457 12.9859C23.8457 18.3247 19.5178 22.6526 14.179 22.6526C8.84028 22.6526 4.51237 18.3247 4.51237 12.9859Z" fill="white"/>
</svg>
