<svg width="30" height="29" viewBox="0 0 30 29" fill="none" xmlns="http://www.w3.org/2000/svg">
<path d="M5.32983 15.5951C5.32983 14.9903 5.82013 14.5 6.42494 14.5H23.6749C24.2797 14.5 24.77 14.9903 24.77 15.5951V23.1848C24.77 24.3944 23.7894 25.375 22.5798 25.375H7.52005C6.31043 25.375 5.32983 24.3944 5.32983 23.1848V15.5951Z" stroke="white" stroke-width="1.5"/>
<rect x="4.11475" y="9.66675" width="21.8702" height="4.83333" rx="1.09511" stroke="white" stroke-width="1.5"/>
<path d="M6.93291 7.89967C5.37586 5.0597 8.80127 2.78787 11.9152 3.92372C14.5425 4.88205 14.9765 7.43952 15.0398 9.05696C15.0517 9.35913 14.8048 9.60338 14.5025 9.60852C11.4928 9.65963 8.1067 10.0406 6.93291 7.89967Z" stroke="white" stroke-width="1.5" stroke-linecap="round"/>
<path d="M23.1667 7.89967C24.7237 5.0597 21.2983 2.78787 18.1844 3.92372C15.5572 4.88205 15.1232 7.43952 15.0598 9.05696C15.0479 9.35913 15.2948 9.60338 15.5971 9.60852C18.6068 9.65963 21.9929 10.0406 23.1667 7.89967Z" stroke="white" stroke-width="1.5" stroke-linecap="round"/>
<path d="M15.0498 9.66675V25.3751" stroke="white" stroke-width="1.5" stroke-linecap="round"/>
</svg>
