<svg width="29" height="29" viewBox="0 0 29 29" fill="none" xmlns="http://www.w3.org/2000/svg">
<rect x="2.41675" y="10.875" width="6.04167" height="14.5" rx="3" stroke="white" stroke-width="1.5"/>
<path d="M8.4585 22.7751V13.4476C8.4585 9.58014 12.9912 9.26573 15.8102 4.88794C16.2881 4.14579 17.1103 3.53239 17.9365 3.84307C21.1129 5.03747 17.3856 10.7722 16.6392 11.8645C16.5865 11.9415 16.644 12.0444 16.7374 12.0444H23.1886C24.8128 12.0444 25.9218 13.6868 25.3149 15.1934L21.7915 23.9392C21.442 24.8068 20.6005 25.375 19.6652 25.375H11.1923C10.7236 25.375 10.2662 25.2314 9.88174 24.9635L9.44037 24.6559C8.82518 24.2273 8.4585 23.5249 8.4585 22.7751Z" stroke="white" stroke-width="1.5" stroke-linecap="round"/>
</svg>
